<svg width="288" height="20" viewBox="0 0 288 20" fill="none" xmlns="http://www.w3.org/2000/svg">
<path d="M22.3728 17.283H19.4547V6.94336H29.9302V17.283H27.012V8.90562H22.3728V17.283Z" fill="#96C05C"/>
<path d="M33.8959 13.5095C33.8959 11.3963 35.168 11.0189 35.9911 11.0189C36.8141 11.0189 38.0862 11.4717 38.0862 13.5095C38.0862 14.7925 37.5624 16.0755 35.9911 16.0755C34.4197 16.0755 33.8959 14.7925 33.8959 13.5095ZM31.3519 9.73588V20H34.0456V16.4529C34.9435 17.434 36.44 17.5095 36.7393 17.5095C39.2834 17.5095 40.8547 15.8491 40.8547 13.5095C40.8547 11.0189 39.2834 9.43399 36.8141 9.43399C36.2155 9.43399 34.9435 9.50946 33.8959 10.6415H33.8211V9.73588H31.3519Z" fill="#96C05C"/>
<path d="M47.5143 16.3773C46.5415 17.283 45.5688 17.5849 44.5212 17.5849C41.603 17.5849 41.5282 15.3962 41.5282 14.4906V9.81131H44.2219V14.1887C44.2219 15.6981 44.7457 16.1509 45.7184 16.1509C47.4394 16.1509 47.5143 14.6415 47.5143 14.1132V9.88678H50.208V17.434H47.5143V16.3773Z" fill="#96C05C"/>
<path d="M54.0241 11.2452H55.4457C56.194 11.2452 56.8674 11.3962 56.8674 12C56.8674 12.6792 55.8199 12.6792 55.3709 12.6792H53.9492V11.2452H54.0241ZM51.3303 9.73581V17.283H56.6429C58.5884 17.283 59.9353 16.9056 59.9353 15.3207C59.9353 14.1132 59.2618 13.5849 57.7653 13.3585V13.283C58.7381 13.132 59.5611 12.5283 59.5611 11.5471C59.5611 9.73581 57.466 9.73581 56.6429 9.73581H51.3303ZM54.0241 14.1132H55.6702C56.9423 14.1132 57.1667 14.4905 57.1667 15.0188C57.1667 15.3207 57.0171 15.7735 55.6702 15.7735H54.0241V14.1132Z" fill="#96C05C"/>
<path d="M66.4451 14.1887C66.4451 15.6981 65.173 16.0755 64.4996 16.0755C63.9758 16.0755 63.1528 15.9246 63.1528 15.1698C63.1528 14.3397 64.1255 14.1887 64.7241 14.1132C65.7716 13.9623 65.6968 14.0378 66.5199 13.7359V14.1887H66.4451ZM63.3024 12.151C63.3024 11.0189 64.4996 10.9434 64.9486 10.9434C65.2479 10.9434 66.3702 10.9434 66.3702 11.9246C66.3702 12 66.3702 12.0755 66.3702 12.151C66.2954 12.9057 65.622 12.7547 63.6017 12.9812C61.9555 13.2076 60.2346 13.5849 60.2346 15.3208C60.2346 15.9246 60.5339 17.5095 63.3772 17.5095C64.4996 17.5095 65.6968 17.2076 66.3702 16.4529H66.4451L66.6696 17.2076H69.5878V17.0566C69.064 16.9812 69.064 16.4529 69.064 15.6227L69.1388 12.151C69.1388 11.2453 69.064 9.35852 65.0234 9.35852C64.0507 9.35852 60.908 9.43399 60.8332 12.0755H63.3024V12.151Z" fill="#96C05C"/>
<path d="M69.3634 11.2452V9.73581H77.9683V11.2452H75.0501V17.283H72.3564V11.2452H69.3634Z" fill="#96C05C"/>
<path d="M81.4103 12.7547H83.8047C84.4782 12.7547 85.8998 12.8302 85.8998 14.0377C85.8998 15.0188 84.8523 15.2452 83.7299 15.2452H81.3355V12.7547H81.4103ZM81.4103 8.90562H88.0698V6.94336H78.4921V17.283H84.4033C87.2467 17.283 89.1173 16.3018 89.1173 14.1886C89.1173 10.8679 85.4509 10.7924 84.4033 10.7924H81.4103V8.90562Z" fill="#96C05C"/>
<path d="M95.702 14.1887C95.702 15.6981 94.4299 16.0755 93.7565 16.0755C93.2327 16.0755 92.4096 15.9246 92.4096 15.1698C92.4096 14.3397 93.3824 14.1887 93.981 14.1132C95.0285 13.9623 94.9537 14.0378 95.7768 13.7359V14.1887H95.702ZM92.5593 12.151C92.5593 11.0189 93.7565 10.9434 94.2054 10.9434C94.5047 10.9434 95.6271 10.9434 95.6271 11.9246C95.6271 12 95.6271 12.0755 95.6271 12.151C95.5523 12.9057 94.8789 12.7547 92.8586 12.9812C91.2124 13.2076 89.4914 13.5849 89.4914 15.3208C89.4914 15.9246 89.7907 17.5095 92.6341 17.5095C93.7565 17.5095 94.9537 17.2076 95.6271 16.4529H95.702L95.9264 17.2076H98.7698V17.0566C98.246 16.9812 98.246 16.4529 98.246 15.6227L98.3208 12.151C98.3208 11.2453 98.246 9.35852 94.2054 9.35852C93.2327 9.35852 90.09 9.43399 90.0152 12.0755H92.5593V12.151Z" fill="#96C05C"/>
<path d="M102.137 17.283H99.4433V9.73581H102.137V12.6037H105.354V9.73581H108.048V17.283H105.354V14.1132H102.137V17.283Z" fill="#96C05C"/>
<path d="M114.857 9.73581H117.776L114.109 13.283L118 17.283H114.857L111.939 13.9622V17.283H109.245V9.73581H111.939V12.7547L114.857 9.73581Z" fill="#96C05C"/>
<path d="M0 17.283H6.73431V10.566H0V17.283Z" fill="black"/>
<path d="M0 0V8.45283H1.79581C6.435 8.45283 8.82942 10.8679 8.82942 15.5472V17.3585H17.2099V0H0ZM13.6183 3.54717C13.6183 5.81132 13.6183 11.3962 13.6183 13.7358C12.9448 13.7358 12.87 13.7358 12.2714 13.7358C11.6728 8.67924 8.53012 5.58491 3.59163 4.98113C3.59163 4.37736 3.59163 4.22642 3.59163 3.62264C5.8364 3.54717 11.3735 3.54717 13.6183 3.54717Z" fill="#96C05C"/>
<path fill-rule="evenodd" clip-rule="evenodd" d="M284.949 7.83677C284.949 7.24118 285.416 6.73962 286.008 6.73962C286.599 6.73962 287.066 7.24118 287.066 7.83677C287.066 8.43237 286.599 8.93392 286.008 8.93392C285.416 8.96527 284.949 8.46371 284.949 7.83677ZM285.977 8.71449C286.412 8.71449 286.786 8.33833 286.786 7.86812C286.786 7.39791 286.412 7.02175 285.977 7.02175C285.541 7.02175 285.167 7.39791 285.167 7.86812C285.167 8.33833 285.541 8.71449 285.977 8.71449ZM285.852 8.33833H285.634V7.36657H286.039C286.132 7.36657 286.226 7.36657 286.288 7.42926C286.381 7.49195 286.412 7.586 286.412 7.68004C286.412 7.80542 286.35 7.89947 286.257 7.93081L286.444 8.36967H286.132L285.977 7.99351H285.821V8.33833H285.852ZM285.852 7.77408H285.977C286.039 7.77408 286.07 7.77408 286.101 7.74273C286.132 7.71138 286.163 7.68004 286.163 7.61734C286.163 7.586 286.132 7.5233 286.101 7.5233C286.07 7.49195 286.008 7.49195 285.977 7.49195H285.852V7.77408Z" fill="#FD0C15"/>
<path fill-rule="evenodd" clip-rule="evenodd" d="M269.852 0.407512L269.572 2.31968C268.949 1.97487 268.482 1.84948 267.984 1.84948C266.677 1.84948 265.743 3.1974 265.743 5.10957C265.743 6.42615 266.366 7.24118 267.393 7.24118C267.829 7.24118 268.296 7.08444 268.887 6.80232L268.576 8.80853C267.922 8.99661 267.517 9.05931 267.019 9.05931C265.121 9.05931 263.938 7.61734 263.938 5.29766C263.938 2.16295 265.556 0 267.922 0C268.233 0 268.482 0.0313471 268.732 0.0940413L269.479 0.282124C269.634 0.344818 269.696 0.344818 269.852 0.407512Z" fill="#FD0C15"/>
<path fill-rule="evenodd" clip-rule="evenodd" d="M263.969 1.72413C263.907 1.69278 263.844 1.69278 263.782 1.69278C263.222 1.69278 262.879 2.00625 262.319 2.85262L262.475 1.78682H260.918L259.829 8.87126H261.603C262.257 4.51402 262.412 3.79303 263.253 3.79303C263.315 3.79303 263.315 3.79303 263.377 3.79303C263.533 2.94666 263.751 2.31972 264.062 1.72413H263.969Z" fill="#FD0C15"/>
<path fill-rule="evenodd" clip-rule="evenodd" d="M253.416 8.77718C252.949 8.93391 252.545 9.02796 252.14 9.02796C251.237 9.02796 250.739 8.49505 250.739 7.4606C250.739 7.27252 250.77 7.05309 250.802 6.80231L250.926 6.11268L251.019 5.54843L251.798 0.720978H253.541L253.323 1.75543H254.226L253.977 3.47952H253.074L252.607 6.42615C252.576 6.55154 252.576 6.64558 252.576 6.70827C252.576 7.08444 252.763 7.24117 253.167 7.24117C253.385 7.24117 253.51 7.20982 253.634 7.17848L253.416 8.77718Z" fill="#FD0C15"/>
<path fill-rule="evenodd" clip-rule="evenodd" d="M246.475 4.01241C246.475 4.92148 246.879 5.51707 247.813 5.98728C248.529 6.3321 248.654 6.45748 248.654 6.77095C248.654 7.20981 248.342 7.42924 247.658 7.42924C247.128 7.42924 246.661 7.3352 246.07 7.14712L245.821 8.77717L245.914 8.80852L246.226 8.87121C246.35 8.90256 246.475 8.9339 246.693 8.9339C247.097 8.96525 247.44 8.9966 247.658 8.9966C249.525 8.9966 250.366 8.24427 250.366 6.64557C250.366 5.67381 250.023 5.10956 249.121 4.6707C248.374 4.32588 248.311 4.23184 248.311 3.88702C248.311 3.51086 248.591 3.32278 249.183 3.32278C249.525 3.32278 249.992 3.38547 250.459 3.44816L250.708 1.81812C250.241 1.72407 249.556 1.66138 249.152 1.66138C247.128 1.63003 246.444 2.69583 246.475 4.01241Z" fill="#FD0C15"/>
<path fill-rule="evenodd" clip-rule="evenodd" d="M283.922 8.87123H282.241L282.335 8.1816C281.868 8.7145 281.339 8.96528 280.716 8.96528C279.409 8.96528 278.568 7.80543 278.568 6.01865C278.568 3.66762 279.875 1.6614 281.432 1.6614C282.117 1.6614 282.615 1.97487 283.113 2.63316L283.486 0.125397H285.23L283.922 8.87123ZM281.307 7.20984C282.148 7.20984 282.708 6.23808 282.708 4.82746C282.708 3.91839 282.366 3.41684 281.774 3.41684C280.965 3.41684 280.405 4.41995 280.405 5.79922C280.405 6.70829 280.716 7.20984 281.307 7.20984Z" fill="#FD0C15"/>
<path fill-rule="evenodd" clip-rule="evenodd" d="M259.019 8.71452C258.428 8.9026 257.837 8.99664 257.214 8.99664C255.253 8.99664 254.226 7.89949 254.226 5.79924C254.226 3.35417 255.533 1.56738 257.307 1.56738C258.77 1.56738 259.673 2.57049 259.673 4.16919C259.673 4.67074 259.611 5.20364 259.455 5.92463H255.907C255.875 6.05002 255.875 6.08136 255.875 6.14406C255.875 6.99043 256.405 7.39794 257.432 7.39794C258.054 7.39794 258.615 7.2412 259.268 6.95908L259.019 8.71452ZM258.023 4.48266C258.054 4.32593 258.054 4.20054 258.054 4.13784C258.054 3.5736 257.743 3.22878 257.214 3.22878C256.654 3.22878 256.249 3.66764 256.093 4.51401H258.023V4.48266Z" fill="#FD0C15"/>
<path fill-rule="evenodd" clip-rule="evenodd" d="M239.377 8.87129H237.634L238.63 2.16301L236.358 8.87129H235.175L235.019 2.19436L233.961 8.87129H232.311L233.681 0.156799H236.202L236.296 5.5485L238.008 0.156799H240.747L239.377 8.87129Z" fill="#FD0C15"/>
<path fill-rule="evenodd" clip-rule="evenodd" d="M243.922 5.7051C243.735 5.67375 243.642 5.67375 243.517 5.67375C242.521 5.67375 242.023 6.04991 242.023 6.73955C242.023 7.17841 242.272 7.46053 242.677 7.46053C243.362 7.49188 243.891 6.73955 243.922 5.7051ZM245.198 8.87115H243.735L243.767 8.11882C243.331 8.71442 242.739 8.96519 241.899 8.96519C240.934 8.96519 240.28 8.18152 240.28 7.02167C240.28 5.29758 241.432 4.29448 243.393 4.29448C243.611 4.29448 243.86 4.32582 244.109 4.35717C244.171 4.10639 244.171 4.01235 244.171 3.88696C244.171 3.41676 243.86 3.22868 243.051 3.22868C242.552 3.22868 241.992 3.32272 241.588 3.44811L241.37 3.54215L241.214 3.60484L241.463 2.00614C242.335 1.72402 242.926 1.62997 243.58 1.62997C245.105 1.62997 245.883 2.35096 245.883 3.69888C245.883 4.0437 245.852 4.29448 245.728 5.1095L245.354 7.61727L245.292 8.05613L245.261 8.43229L245.23 8.68307L245.198 8.87115Z" fill="#FD0C15"/>
<path fill-rule="evenodd" clip-rule="evenodd" d="M272.903 5.70513C272.716 5.67378 272.623 5.67378 272.498 5.67378C271.502 5.67378 270.973 6.04995 270.973 6.73959C270.973 7.17845 271.222 7.46057 271.626 7.46057C272.342 7.49192 272.872 6.73959 272.903 5.70513ZM274.179 8.87119H272.716L272.747 8.11886C272.311 8.71445 271.72 8.96523 270.879 8.96523C269.914 8.96523 269.261 8.18155 269.261 7.02171C269.261 5.29762 270.412 4.29451 272.374 4.29451C272.56 4.29451 272.84 4.32586 273.089 4.35721C273.152 4.10643 273.152 4.01239 273.152 3.887C273.152 3.41679 272.84 3.22871 272.031 3.22871C271.533 3.22871 270.973 3.32275 270.568 3.44814L270.319 3.51084L270.163 3.57353L270.412 1.97483C271.284 1.6927 271.875 1.59866 272.529 1.59866C274.054 1.59866 274.833 2.31965 274.833 3.66757C274.833 4.01239 274.802 4.26317 274.677 5.07819L274.303 7.58596L274.241 8.02482L274.179 8.36963L274.148 8.62041L274.179 8.87119Z" fill="#FD0C15"/>
<path fill-rule="evenodd" clip-rule="evenodd" d="M279.097 1.72413C279.035 1.69278 278.973 1.69278 278.911 1.69278C278.35 1.69278 278.008 2.00625 277.448 2.85262L277.603 1.78682H276.016L274.926 8.87126H276.7C277.354 4.51402 277.51 3.79303 278.35 3.79303C278.412 3.79303 278.412 3.79303 278.475 3.79303C278.63 2.94666 278.848 2.31972 279.16 1.72413H279.097Z" fill="#FD0C15"/>
<path fill-rule="evenodd" clip-rule="evenodd" d="M271.689 15.7677C271.689 17.3664 271.191 18.3381 270.412 18.3381C269.852 18.3695 269.51 17.7112 269.51 16.7708C269.51 15.6423 270.008 14.357 270.817 14.357C271.471 14.3257 271.689 15.0153 271.689 15.7677ZM273.432 15.7677C273.432 13.9809 272.56 12.5703 270.91 12.5703C269.012 12.5703 267.767 14.263 267.767 16.7394C267.767 18.5262 268.514 19.9995 270.288 19.9995C272.125 20.0309 273.432 18.7456 273.432 15.7677Z" fill="#F3AE12"/>
<path fill-rule="evenodd" clip-rule="evenodd" d="M268.358 11.3477L268.078 13.2598C267.486 12.915 267.082 12.7896 266.615 12.7896C265.401 12.7896 264.529 14.1376 264.529 16.0497C264.529 17.3663 265.089 18.1813 266.054 18.1813C266.459 18.1813 266.926 18.0246 267.455 17.7425L267.175 19.7487C266.584 19.9368 266.179 19.9995 265.712 19.9995C263.938 19.9995 262.817 18.5575 262.817 16.2378C262.817 13.1031 264.342 10.9402 266.552 10.9402C266.833 10.9402 267.082 10.9715 267.3 11.0342L267.984 11.2223C268.14 11.2536 268.202 11.285 268.358 11.3477Z" fill="#F3AE12"/>
<path fill-rule="evenodd" clip-rule="evenodd" d="M257.432 12.6329C257.37 12.6015 257.307 12.6015 257.245 12.6015C256.716 12.6015 256.405 12.915 255.875 13.7614L256.031 12.6956H254.537L253.541 19.78H255.191C255.813 15.4541 255.969 14.7018 256.747 14.7018C256.809 14.7018 256.809 14.7018 256.872 14.7331C257.027 13.8868 257.214 13.2598 257.494 12.6642L257.432 12.6329Z" fill="#F3AE12"/>
<path fill-rule="evenodd" clip-rule="evenodd" d="M278.973 19.7173H277.416L277.51 19.0277C277.074 19.5606 276.576 19.8113 275.984 19.8113C274.802 19.8113 273.992 18.6515 273.992 16.8647C273.992 14.5137 275.237 12.5075 276.669 12.5075C277.323 12.5075 277.79 12.8209 278.257 13.4792L278.63 10.9715H280.249L278.973 19.7173ZM276.514 18.0559C277.292 18.0559 277.821 17.0841 277.821 15.6735C277.821 14.7645 277.51 14.2943 276.949 14.2943C276.202 14.2943 275.673 15.266 275.673 16.6766C275.673 17.5857 275.953 18.0559 276.514 18.0559Z" fill="#F3AE12"/>
<path fill-rule="evenodd" clip-rule="evenodd" d="M241.992 19.686C241.432 19.8741 240.903 19.9681 240.311 19.9681C238.475 19.9681 237.51 18.871 237.51 16.7707C237.51 14.357 238.724 12.5388 240.374 12.5388C241.743 12.5388 242.584 13.542 242.584 15.1407C242.584 15.6422 242.521 16.1751 242.366 16.8961H239.097C239.066 17.0215 239.066 17.0528 239.066 17.1155C239.066 17.9305 239.564 18.3381 240.529 18.3381C241.121 18.3381 241.65 18.1813 242.241 17.8992L241.992 19.686ZM241.058 15.4855C241.058 15.3287 241.09 15.2034 241.09 15.1407C241.09 14.5764 240.809 14.2316 240.311 14.2316C239.782 14.2316 239.409 14.6705 239.253 15.5168H241.058V15.4855Z" fill="#F3AE12"/>
<path fill-rule="evenodd" clip-rule="evenodd" d="M261.603 19.686C261.043 19.8741 260.514 19.9681 259.922 19.9681C258.054 19.9681 257.121 18.871 257.121 16.7707C257.121 14.357 258.335 12.5388 259.984 12.5388C261.354 12.5388 262.226 13.542 262.226 15.1407C262.226 15.6422 262.163 16.1751 262.008 16.8961H258.708C258.677 17.0215 258.677 17.0528 258.677 17.1155C258.677 17.9305 259.175 18.3381 260.14 18.3381C260.731 18.3381 261.261 18.1813 261.852 17.8992L261.603 19.686ZM260.669 15.4855C260.7 15.3287 260.7 15.2034 260.7 15.1407C260.7 14.5764 260.42 14.2316 259.922 14.2316C259.393 14.2316 259.019 14.6705 258.864 15.5168H260.669V15.4855Z" fill="#F3AE12"/>
<path fill-rule="evenodd" clip-rule="evenodd" d="M284.576 19.686C284.016 19.8741 283.455 19.9681 282.895 19.9681C281.058 19.9681 280.093 18.871 280.093 16.7707C280.093 14.357 281.339 12.5388 282.988 12.5388C284.358 12.5388 285.198 13.542 285.198 15.1407C285.198 15.6422 285.136 16.1751 284.981 16.8961H281.712C281.681 17.0215 281.681 17.0528 281.681 17.1155C281.681 17.9305 282.179 18.3381 283.144 18.3381C283.735 18.3381 284.265 18.1813 284.856 17.8992L284.576 19.686ZM283.642 15.4855C283.642 15.3287 283.673 15.2034 283.673 15.1407C283.673 14.5764 283.393 14.2316 282.895 14.2316C282.366 14.2316 281.992 14.6705 281.837 15.5168H283.642V15.4855Z" fill="#F3AE12"/>
<path fill-rule="evenodd" clip-rule="evenodd" d="M237.105 12.9465C236.794 12.727 236.327 12.5389 235.735 12.5389C235.051 12.5389 234.553 12.6957 234.553 13.3853C234.553 14.6392 236.981 14.169 236.981 16.8648C236.981 19.3099 235.393 19.9682 233.93 19.9682C233.276 19.9682 232.529 19.7488 232 19.498L232.405 17.7112C232.747 18.0247 233.401 18.2128 233.961 18.2128C234.49 18.2128 235.3 18.056 235.3 17.147C235.3 15.705 232.872 16.2379 232.872 13.7301C232.872 11.4418 234.304 10.7522 235.673 10.7522C236.451 10.7522 237.167 10.8776 237.603 11.1597L237.105 12.9465Z" fill="#F3AE12"/>
<path fill-rule="evenodd" clip-rule="evenodd" d="M246.817 19.686C246.475 19.8427 246.008 19.9681 245.354 19.9681C243.922 19.9681 243.019 18.5261 243.019 16.7393C243.019 14.4197 244.327 12.6015 246.226 12.6015C246.63 12.6015 247.284 12.7896 247.782 13.0717L247.409 14.7645C247.035 14.5137 246.661 14.3883 246.288 14.3883C245.416 14.3883 244.763 15.2033 244.763 16.6453C244.763 17.4917 245.23 18.1813 245.945 18.1813C246.381 18.1813 246.693 18.0873 247.035 17.8678L246.817 19.686Z" fill="#F3AE12"/>
<path fill-rule="evenodd" clip-rule="evenodd" d="M252.981 17.8991C252.887 18.4947 252.825 19.0903 252.763 19.7173H251.175L251.3 18.5888H251.268C250.77 19.3725 250.272 19.9054 249.338 19.9054C248.342 19.9054 247.813 18.8396 247.813 17.4916C247.813 17.0214 247.844 16.7393 247.938 16.0183L248.374 12.7269H250.148L249.712 16.0183C249.65 16.3631 249.588 16.7393 249.588 17.0841C249.588 17.4916 249.774 17.9305 250.272 17.8991C250.988 17.8991 251.424 17.0214 251.549 15.9556L252.047 12.6955H253.759L252.981 17.8991Z" fill="#F3AE12"/>
<path fill-rule="evenodd" clip-rule="evenodd" d="M286.226 19.6547H285.945V18.4949H285.572V18.2441H286.599V18.4949H286.226V19.6547Z" fill="#F3AE12"/>
<path fill-rule="evenodd" clip-rule="evenodd" d="M288 19.6547H287.751V18.4635L287.502 19.6547H287.253L287.004 18.4635V19.6547H286.755V18.2441H287.16L287.377 19.3726H287.409L287.626 18.2441H288V19.6547Z" fill="#F3AE12"/>
<path fill-rule="evenodd" clip-rule="evenodd" d="M187.818 13.2992C187.765 13.6933 187.696 14.0704 187.626 14.4303C187.276 14.3275 186.892 14.1389 186.333 14.1732C186.001 14.1903 185.599 14.3275 185.599 14.6188C185.599 14.9444 186.141 15.1329 186.438 15.2872C186.979 15.5442 187.573 15.887 187.626 16.5897C187.661 17.1209 187.399 17.6008 187.119 17.8579C186.35 18.5777 184.638 18.6462 183.485 18.1835C183.555 17.8065 183.625 17.4123 183.677 17.0181C184.132 17.2066 184.743 17.4637 185.424 17.378C185.739 17.3437 186.106 17.1724 186.106 16.8467C186.088 16.4697 185.372 16.2469 185.005 16.0413C184.586 15.8185 184.097 15.4243 184.079 14.8587C184.062 14.4646 184.219 14.1047 184.411 13.8647C185.005 13.1449 186.543 12.8879 187.818 13.2992Z" fill="#2D2E91"/>
<path fill-rule="evenodd" clip-rule="evenodd" d="M173.999 5.89551H175.554L174.593 11.8081H173.038L173.999 5.89551Z" fill="#2D2E91"/>
<path fill-rule="evenodd" clip-rule="evenodd" d="M168.618 5.89551H170.994C172.514 5.89551 172.898 6.75241 172.741 7.76355C172.601 8.62045 171.972 9.186 171.169 9.39166L172.671 11.8081H170.714L169.579 9.47735L169.194 11.8081H167.657L168.618 5.89551ZM169.981 7.07803L169.736 8.56903H170.19C170.627 8.56903 171.046 8.24341 171.116 7.8321C171.186 7.42079 170.889 7.09517 170.452 7.09517H169.981V7.07803Z" fill="#2D2E91"/>
<path fill-rule="evenodd" clip-rule="evenodd" d="M181.092 5.89551H182.647L181.703 11.8081H180.148L181.092 5.89551Z" fill="#2D2E91"/>
<path fill-rule="evenodd" clip-rule="evenodd" d="M183.835 5.89551H187.241L187.032 7.18086H185.18L185.023 8.192H186.787L186.578 9.47735H184.813L184.638 10.5228H186.49L186.281 11.8081H182.874L183.835 5.89551Z" fill="#2D2E91"/>
<path fill-rule="evenodd" clip-rule="evenodd" d="M164.285 5.89551H167.692L167.482 7.18086H165.631L165.473 8.192H167.238L167.028 9.47735H165.264L165.089 10.5228H166.941L166.731 11.8081H163.324L164.285 5.89551Z" fill="#2D2E91"/>
<path fill-rule="evenodd" clip-rule="evenodd" d="M176.724 5.89551H180.183L179.974 7.18086H178.069L177.912 8.192H179.642L179.432 9.47735H177.703L177.336 11.8081H175.781L176.724 5.89551Z" fill="#2D2E91"/>
<path fill-rule="evenodd" clip-rule="evenodd" d="M188.161 5.99991H190.187C192.598 5.99991 193.157 7.78226 192.965 8.96478C192.703 10.6272 191.183 11.9125 189.244 11.9125H187.217L188.161 5.99991ZM189.506 7.28526C189.611 7.28526 189.733 7.28526 189.821 7.28526C191.009 7.28526 191.48 8.10788 191.341 8.89623C191.166 9.95878 190.397 10.6272 189.366 10.6272C189.227 10.6272 189.104 10.6272 188.947 10.6272L189.506 7.28526Z" fill="#2D2E91"/>
<path fill-rule="evenodd" clip-rule="evenodd" d="M157 5.08998H159.883L160.232 9.39162C162.119 6.15254 164.058 3.05056 165.997 0H166.941C164.879 3.90746 162.835 7.83206 160.861 11.8081H158.765L158.24 7.07799C158.118 5.89547 157.874 5.39847 157 5.2785V5.08998Z" fill="#2D2E91"/>
<path fill-rule="evenodd" clip-rule="evenodd" d="M158.083 2.65644L160.547 3.66759L160.756 6.34111H160.931L163.15 2.65644V2.46793H158.083V2.65644Z" fill="#FF8500"/>
<path fill-rule="evenodd" clip-rule="evenodd" d="M169.422 16.0411C169.788 16.0411 170.051 16.3667 169.981 16.7952C169.928 17.2065 169.579 17.5321 169.194 17.5321C168.828 17.5321 168.566 17.2065 168.635 16.7952C168.688 16.3839 169.055 16.0411 169.422 16.0411ZM168.164 13.1962H169.177L168.845 15.527C169.125 15.2528 169.491 15.0814 169.876 15.0814C170.679 15.0814 171.204 15.8526 171.064 16.778C170.924 17.7206 170.155 18.4747 169.352 18.4747C168.95 18.4747 168.67 18.3033 168.478 17.9948L168.426 18.3719H167.412L168.164 13.1962Z" fill="#2D2E91"/>
<path fill-rule="evenodd" clip-rule="evenodd" d="M171.134 15.1671H172.339L172.881 16.8295L173.929 15.1671H175.099L172.042 20H170.872L172.164 17.9606L171.134 15.1671Z" fill="#2D2E91"/>
<path fill-rule="evenodd" clip-rule="evenodd" d="M181.092 18.4061L181.983 13.1962H183.433L182.542 18.4061H181.092Z" fill="#2D2E91"/>
<path fill-rule="evenodd" clip-rule="evenodd" d="M179.886 13.1962C179.38 14.3444 178.961 15.5784 178.454 16.7095L178.297 16.024L178.314 16.1439C178.209 15.784 178.017 15.4413 177.773 15.1328L177.755 15.1157C177.72 15.0642 177.668 15.0128 177.615 14.9614C177.58 14.9271 177.563 14.8929 177.528 14.8586C177.179 14.4815 176.759 14.1559 176.305 13.8989L177.598 18.389H179.153C179.886 16.6409 180.673 14.9443 181.406 13.1962C180.9 13.1962 180.393 13.1962 179.886 13.1962Z" fill="#2D2E91"/>
<path fill-rule="evenodd" clip-rule="evenodd" d="M177.161 13.1962H174.802V13.3162C176.165 13.5732 177.877 14.7043 178.331 16.1439L177.825 13.7103C177.755 13.3333 177.475 13.1962 177.161 13.1962Z" fill="#FF8500"/>
<path fill-rule="evenodd" clip-rule="evenodd" d="M192.692 18.4061C192.256 18.4061 191.801 18.4061 191.365 18.4061C191.277 18.1662 191.26 17.8577 191.172 17.6006C190.578 17.6006 189.967 17.6006 189.373 17.6006L189.041 18.4061C188.534 18.4061 188.028 18.4061 187.521 18.4061L189.495 13.9503C189.583 13.7617 189.74 13.4875 189.81 13.3676C189.914 13.1962 190.299 13.179 190.456 13.179H191.557L192.692 18.4061ZM190.491 14.6358L189.757 16.5724H190.945L190.491 14.6358Z" fill="#2D2E91"/>
</svg>
